<?xml version="1.0" encoding="UTF-8"?>
<svg id="Calque_1" xmlns="http://www.w3.org/2000/svg" version="1.1" viewBox="0 0 1080 1080">
  <!-- Generator: Adobe Illustrator 30.0.0, SVG Export Plug-In . SVG Version: 2.1.1 Build 123)  -->
  <defs>
    <style>
      .st0 {
        fill: #627cf3;
      }

      .st1 {
        fill: #181b26;
      }
    </style>
  </defs>
  <rect class="st1" y="0" width="1080" height="1080"/>
  <path class="st0" d="M878.6,298.5h-49c-128.7-152.4-351.2-181.4-513-61.6-206.9,153.2-204.9,460.2,4.9,609.8,160.8,114.7,379,86.1,506.1-63.1h50.1c-65,92-172.2,156.4-284.4,170.7-215.6,27.6-418.4-119.3-462-330.8C72,336.7,326.8,75.8,614.9,129.2c105,19.4,202.8,81.9,263.6,169.3Z"/>
  <path class="st0" d="M799.5,298.5h-38.5l-64.3-49.6h-127.1v97h96.5c3.5,0,12.8,6.3,12,11.2.9,28.4-.8,57,0,85.4,0,3.1,0,11,0,12.9-3.8.9-11.2,1.3-16.1,2.7-33.2,9.2-57.7,40.6-60.9,74.6h-35.9v14.8h35.9c4,41.5,36.7,73.8,78.1,78.1-.8,1.5-1.1,3-1.1,4.7-.7,22.2.9,44.5,1.2,66.5.1,10.5,2.5,34.1-11.2,36.4-8.8,1.5-23-.3-32.7,0-2.5,0-4.8,1.1-7.3,1.1-19.5.4-39.1-.4-58.6,0v97h131.3l61.2-47.5h35.3c-63.2,68.4-155.4,109.3-248.9,111.8V184.6c94.8,2.2,187.3,44.4,251,113.9Z"/>
  <path class="st0" d="M839.5,314.3v68.6h-18.5c-4.7,0-15.4,8.9-16.6,14l-.8,285c-.2,6.3,10.9,17.4,16.4,17.4h19.5v69.6h-81.7l-62.2,47.5h-111.3v-68.6c24.1-.5,48.2,2.4,72.3,1.1,22.7-1.2,35.5-7.8,37.4-32.2,2.3-29.6-2-61.5.5-91.3,27.8-3.6,52.5-19,66.2-43.5,30-53.7-5.2-122.2-66.6-126.2v-92.3c.8-14.6-11.5-32.1-26.9-32.1h-82.8v-67.5h107.1l64.6,49.4c27.7,2.6,55.8.7,83.6,1.3Z"/>
  <path class="st0" d="M887,768.9v-81.7c0-1.3,8.2-19.4,9.5-23.2,28.1-84.7,28.3-168.3-1.6-252.6-1-2.9-7.9-16.5-7.9-17.4v-83.8l20.2,33c63.1,117.5,67.3,253.5,10,374.3-8.3,17.6-18.1,36.3-30.3,51.5Z"/>
  <path class="st0" d="M531.6,431.4v75.9c-39.5,3.7-39.7,61.5,0,65.4v75.9c-6.7-1.3-12.9-1.5-19.7-3-34.1-7.6-63.7-33.9-76.1-66.3-26.8-70.1,21.9-143.1,95.7-147.9Z"/>
  <path class="st0" d="M531.6,184.6v13.7c-91,.5-182.6,43.5-243.7,110.2-146.6,160-110.1,412.3,75,524.1,50,30.2,110,48.9,168.7,49.1v13.7c-71-2.2-139.9-25.7-197.6-66.6-161.1-114.3-198.6-338.7-80.3-498.6,64.8-87.6,168.1-142.9,277.8-145.6Z"/>
  <path class="st0" d="M531.6,397.6v24.3c-77.7,4.1-131.2,80.2-107,155,12.6,38.9,47.8,70.6,88,78.7,6.3,1.3,12.7,1.3,19,2.6v24.3c-57.8-2.5-109.3-40.1-128.4-94.7-32-91.2,32.7-185.9,128.4-190.1Z"/>
  <path class="st0" d="M681.3,469.3c.5,4.6-2.1,16.3,3.9,17.8,8,2,5.1-13.5,5.6-17.8,14.6,2.1,31.6,6.5,41,18.3-2.5,4.4-11.8,7.4-8.9,13.3,4.5,9.1,13.9-7.9,16.4-6.9,10.2,10.7,16.3,25.8,16.9,40.6-5.9,0-19.1-2.1-16.4,7.5,1.3,4.6,12.5,2.7,16.4,3.1-1.1,14.9-6.6,30.5-17.4,41.1-3.7-2.7-10-13.5-15.3-9-6.2,5.3,10,15.1,8.4,17.4-12.1,7.2-25.1,14.9-39.6,15.9-2.2.1-1.4,0-1.6-1.6-.6-4.1,2-15.1-3.8-16.2-7.5-1.4-5.6,13.5-5.7,17.8-15.1-1.5-29.6-7.6-41.1-17.4,2.4-3.5,12.1-9.1,9.8-13.9-4.3-9.1-15.3,7.4-17.2,6.6-9.1-11.5-15.2-25.4-16.9-40.1,0-1.4,15.2,1.1,16.8-3.3,4.1-11.8-16.7-6.3-16.8-8.3,1.7-15.4,7.7-28.4,16.9-40.6,1.2-.9,12.6,16.6,17.2,7.1,2.3-4.7-7.2-10.4-9.8-13.9,11-10.7,26.2-15.4,41.1-17.4ZM683.2,496c-57.6,4.7-51.7,94.4,10.1,87.1,53-6.2,45.5-91.7-10.1-87.1Z"/>
  <path class="st0" d="M825.7,398.8c34.1,71.1,42.6,150.6,20.9,226.9-5.8,20.4-14.3,39.6-22.9,58.8-2.6-1.2-5.5-2.4-5.3-5.8v-275.4c-.2-4,4.1-5.1,7.3-4.6Z"/>
  <path class="st0" d="M864.8,684.5h-20c43.8-88.5,43.5-196.5,2.1-285.8h18.5c41.4,89.3,39.2,196.4-.5,285.8Z"/>
  <path class="st0" d="M364.7,267.1c4.7-1.2,7.2,1.3,4.6,5.6-53.3,34.3-97.1,85.3-121.9,143.9-4.1,9.6-6.5,20.8-11.8,29.4l-3.5-.4-1.9-2.3c19.1-61.7,57.5-118.3,108.5-158,4.1-3.2,22.6-17.5,26-18.3Z"/>
  <path class="st0" d="M310.5,758.9c9.2,9.6,20.3,19.6,30.7,27.8,5.1,4.1,34.9,23.4,35.9,25.3.7,1.4.9,2.9,0,4.3-1,1.4-3.6,1.1-5.1.8-2.8-.6-17.6-11.2-21.1-13.7-47.4-33.5-89.5-84.9-110.9-139.1-1.3-3.3-8-19-5.8-21.1l6.2,1.7c14.9,42.4,39,81.5,70.1,113.9Z"/>
  <path class="st0" d="M383.6,295.5c4.4-.9,5.9,2.1,3.5,5.7-1.6,2.4-18.1,12.7-22.1,15.9-37.2,29.1-67.6,67.5-86,111.2-2.4,5.6-7.3,23.1-9.6,26.3-2.6,3.6-7.5,1.8-6.4-4.2,1.5-8.1,8.7-24,12.4-32,20.3-44.7,55.4-87.1,95.9-115,2.5-1.7,10-7.4,12.2-7.9Z"/>
  <path class="st0" d="M271.9,633.1c1.4,1.5,3.2,10.1,4.5,12.9,20.5,47.6,50.3,87.9,91.9,119.1,4,3,26.7,17.1,27.1,19.2,1.2,5.8-5.4,3.9-8.6,2.3-44.4-23.3-91.4-80.2-111.7-125.6-1.9-4.4-10-23.2-9.1-26.3s3.9-3.6,5.9-1.6Z"/>
  <path class="st0" d="M409.1,329.2c.3.2,1.2,3,1.1,3.6-.2,3.1-14.3,11.1-17.8,13.8-40.4,31-70.4,72.7-85.7,121.6h-5c-1.8-3.1-.2-6,.6-9.1,9.8-38,42.9-82.7,72.5-107.8s21.6-18.2,28.4-21.2,4.2-1.8,5.7-.8Z"/>
  <path class="st0" d="M415.4,747.9l.2,6.2c-4.3.8-6.7-1.4-10-3.2-38.1-20.6-80.3-72.3-96.7-112.1-1.4-3.3-7.2-17-4.1-19.3,1.1-.6,2.5-.8,3.7-.4,1.7.6,7.4,17.4,8.9,20.7,20.6,44.9,55.1,83.6,98.1,108.1Z"/>
  <polygon class="st0" points="872.2 699.3 873.3 768.9 854.3 768.9 854.3 699.3 872.2 699.3"/>
  <path class="st0" d="M872.2,313.2v69.6h-17.9v-69.6c5.5,2.5,11.8-1.2,17.9,0Z"/>
  <path class="st0" d="M336.6,478.7c-.9-1.4.1-5.3.6-7,7.5-29.3,34.5-67.4,56.8-87.7,6.5-5.9,21.2-18.3,28.6-22s3.6-1.9,5.7-.8c6.2,4.5-8.6,11.6-11.6,13.9-29.9,22.9-51.4,48.5-66.6,83.2-1.7,3.9-6.1,18.6-7.3,20.1-1.5,1.9-5.4,1.6-6.2.3Z"/>
  <path class="st0" d="M344.7,607.7c13.3,39.2,38.8,71.9,71.6,96.7,3.2,2.4,15.9,9.7,17.2,11.3,4.1,5.1,0,7.9-6,4.9-27.2-13.3-59.8-50.1-74.4-76.5-2.6-4.6-17.3-33.9-14.6-36.6l6.2.2Z"/>
  <path class="st1" d="M683.2,496c55.6-4.6,63.1,80.9,10.1,87.1-61.9,7.3-67.8-82.4-10.1-87.1ZM683.2,510.7c-37.9,4.5-32.6,63.4,9.1,57.7,34-4.7,28-62-9.1-57.7Z"/>
  <path class="st0" d="M683.2,510.7c37.1-4.4,43.2,53,9.1,57.7-41.7,5.8-47-53.2-9.1-57.7ZM692.9,557.9c1.2-4.8-1.8-11-1.1-15.3.5-2.5,3.3-3.7,4-6.6,3.8-16.4-18.2-18.5-19.8-5-.8,7.1,4.5,8,5,10.6.4,2.2-2.4,15.6-1.9,16.2h13.7Z"/>
  <path class="st1" d="M692.9,557.9h-13.7c-.6-.6,2.3-14,1.9-16.2-.5-2.5-5.8-3.5-5-10.6,1.6-13.5,23.6-11.5,19.8,5-.7,2.9-3.5,4-4,6.6-.8,4.3,2.3,10.5,1.1,15.3Z"/>
</svg>