<svg version="1.1" id="Layer_1" xmlns="http://www.w3.org/2000/svg" xmlns:xlink="http://www.w3.org/1999/xlink" x="0px" y="0px"
	 width="100%" viewBox="0 0 1024 1024" enable-background="new 0 0 1024 1024" xml:space="preserve">
<path fill="#000000" opacity="1.000000" stroke="none" 
	d="
M1.000000,735.000000 
	C1.000000,575.641785 1.000000,416.283539 1.309145,256.540771 
	C11.902298,253.254868 21.166735,248.148361 27.089653,239.346832 
	C32.166222,231.802963 38.811970,226.130127 46.397717,222.654205 
	C53.783802,219.269730 57.020050,213.759735 60.396751,207.466049 
	C65.228493,198.460403 66.421425,187.977936 71.672867,179.236404 
	C80.188858,165.060715 86.798271,150.009750 93.285660,134.866241 
	C98.074661,123.687317 105.119156,114.309265 116.543243,109.236626 
	C123.933327,105.955200 129.606522,100.782211 134.702774,94.792725 
	C143.242432,84.756271 152.670319,75.707657 162.856308,67.302483 
	C172.420090,59.410732 182.356750,52.019695 190.286270,42.025257 
	C195.330627,35.667282 200.784775,28.753365 207.493652,24.227680 
	C214.935379,19.207626 219.137711,12.124311 224.286636,5.505950 
	C225.567551,3.859478 226.270523,2.365657 224.000000,1.000000 
	C404.691559,1.000000 585.383118,1.000000 766.348145,1.160057 
	C765.059937,2.355960 765.523438,3.306992 766.490601,4.591884 
	C771.642700,11.436372 777.664551,17.400608 784.896240,21.955719 
	C793.429077,27.330372 801.032898,33.952938 806.651245,42.059498 
	C812.326355,50.247921 818.112244,57.588009 827.988220,60.436127 
	C839.291565,63.695889 845.482788,72.384216 851.419495,81.561737 
	C854.197815,85.856735 856.437988,90.480858 860.258362,94.163795 
	C867.803955,101.438034 876.821228,106.068474 886.373779,109.907837 
	C888.853699,110.904572 891.421143,111.837868 892.854919,114.306801 
	C894.265686,116.735992 896.371155,118.278496 898.849426,119.374092 
	C913.383301,125.799187 925.728027,135.203003 936.310608,146.971527 
	C947.109680,158.980804 956.902405,171.807388 966.799683,184.554565 
	C973.319336,192.951447 978.385315,202.431229 986.180542,209.890457 
	C991.946777,215.408020 997.263916,221.391678 1002.902466,227.046616 
	C1009.391296,233.554276 1016.714844,238.955719 1025.000000,243.000000 
	C1025.000000,426.024902 1025.000000,609.049805 1024.701660,792.509521 
	C1023.124207,793.249817 1021.681396,793.273315 1020.592407,793.905945 
	C1012.895813,798.377380 1004.477478,801.157898 996.925354,806.347656 
	C986.740295,813.346863 975.544678,818.563721 967.008240,828.136047 
	C959.203552,836.887756 951.190979,845.544006 942.382690,853.405518 
	C938.443909,856.920837 934.657349,860.973389 932.004333,865.488770 
	C925.905273,875.869202 918.105347,884.995972 911.326965,894.864197 
	C902.848755,907.207275 893.265198,918.785828 884.561584,930.981934 
	C880.512756,936.655518 875.965881,941.580566 870.059326,945.188965 
	C858.266235,952.393311 846.354370,959.404175 834.596252,966.664551 
	C824.684814,972.784668 815.000122,979.078186 807.139404,988.044678 
	C799.162109,997.144043 790.643250,1005.552429 778.726257,1010.263916 
	C772.907288,1012.564331 766.580505,1016.954956 766.000000,1025.000000 
	C589.975098,1025.000000 413.950165,1025.000000 237.457275,1024.729248 
	C235.306747,1019.199585 231.891785,1015.698792 226.649246,1013.832458 
	C221.785980,1012.101257 216.900253,1010.362732 212.218552,1008.205994 
	C201.038712,1003.055969 189.217163,998.575317 184.933289,985.163025 
	C184.551498,983.967590 183.388504,983.022705 182.592621,981.958252 
	C178.059723,975.895691 171.731918,971.662903 166.572998,966.257263 
	C160.747101,960.152710 152.618927,955.212158 150.695984,946.734131 
	C148.390030,936.567322 145.106140,926.562439 143.919891,916.158386 
	C142.816513,906.481140 143.300705,896.633911 137.268356,887.944763 
	C132.040695,880.414734 126.818901,872.901550 120.707214,866.093384 
	C118.660141,863.812866 115.757645,861.984070 112.892006,860.822388 
	C107.425369,858.606445 103.452835,854.734619 99.629623,850.540405 
	C98.620369,849.433289 97.673920,848.239502 96.529007,847.290039 
	C88.059059,840.265503 83.067955,831.046204 79.305527,820.907471 
	C73.497574,805.256653 66.587883,790.098328 56.736839,776.522156 
	C52.219963,770.297241 46.741100,765.568237 37.951450,766.410095 
	C33.548126,766.831848 29.784227,764.659668 27.377001,760.262390 
	C21.956957,750.361511 14.624852,742.062378 5.318120,735.550049 
	C3.844212,734.518677 2.666061,733.479675 1.000000,735.000000 
M660.141418,838.764587 
	C622.981934,855.664185 584.128723,865.988953 543.417664,869.623230 
	C507.951874,872.789185 472.842957,870.750549 438.188141,862.904907 
	C351.244904,843.221375 280.693512,797.598450 226.562653,726.939392 
	C185.733658,673.643799 163.221725,613.059021 156.402542,546.342590 
	C152.965912,512.720093 155.152863,479.451416 161.117188,446.414276 
	C167.398209,411.622925 179.113968,378.518036 195.846466,347.379028 
	C236.695801,271.358795 296.964539,216.251434 376.320801,182.442154 
	C436.257233,156.906570 498.763275,149.569305 563.222900,158.546875 
	C615.373474,165.810135 663.362793,184.144135 707.375854,212.975403 
	C734.850037,230.972687 759.686035,252.060623 781.199402,276.904572 
	C785.338867,281.684906 789.456726,284.262848 796.064392,283.855316 
	C805.859741,283.251251 815.719788,283.716583 825.551941,283.667664 
	C827.491089,283.658020 829.903137,284.268219 831.016235,282.162628 
	C832.154053,280.010345 830.182678,278.457489 829.031921,276.914215 
	C821.055481,266.217285 812.490051,256.014221 803.357971,246.279892 
	C729.683533,167.747253 639.253845,124.261269 531.699219,117.635872 
	C489.853333,115.058144 448.527771,120.324593 408.186096,131.873795 
	C327.436310,154.991165 260.365387,199.353271 207.268829,264.217712 
	C156.476059,326.267792 126.812439,397.374115 119.133636,477.489563 
	C115.934227,510.870056 116.868019,544.025574 122.623032,577.015625 
	C133.391983,638.747620 157.018570,695.074219 194.238312,745.586060 
	C224.433578,786.564819 260.978882,820.787415 304.114685,847.818481 
	C363.366241,884.948547 427.958191,905.465332 497.860535,908.431702 
	C536.684021,910.079285 575.026306,906.020020 612.566956,895.646790 
	C701.015381,871.206909 773.319580,822.800903 828.882996,749.627197 
	C829.937439,748.238647 831.531921,747.035645 831.113647,744.541077 
	C829.496582,744.464539 827.873108,744.324097 826.249390,744.321045 
	C814.416565,744.298950 802.580383,744.465820 790.752869,744.213562 
	C786.638977,744.125854 783.979065,745.680664 781.369141,748.654724 
	C747.585205,787.153076 707.400757,817.093079 660.141418,838.764587 
M682.973328,775.508667 
	C678.188538,779.119324 673.311646,782.616211 668.655090,786.385315 
	C666.051758,788.492493 663.365356,789.446106 659.991760,789.439331 
	C622.330322,789.363708 584.668152,789.310425 547.007568,789.508301 
	C541.875977,789.535217 540.514160,787.856384 540.551514,782.910156 
	C540.754272,756.081970 540.746765,729.250671 540.550659,702.422363 
	C540.515686,697.639465 542.040710,695.627014 546.799866,696.049194 
	C548.617798,696.210571 550.463501,696.052307 552.296509,696.051697 
	C577.626343,696.042847 602.956482,696.110168 628.285767,695.994080 
	C639.168518,695.944214 644.508667,690.991211 644.547302,680.812073 
	C644.650330,653.649597 644.518005,626.486328 644.560913,599.323486 
	C644.566833,595.563721 643.403931,593.814880 639.293396,593.124878 
	C619.361145,589.779053 602.576599,580.648376 589.523499,564.969666 
	C580.015991,553.549866 574.230225,540.441223 571.652344,525.905029 
	C570.899780,521.661194 568.954285,519.983826 564.582642,520.211243 
	C558.433044,520.531250 552.255127,520.317322 546.089294,520.309875 
	C536.393494,520.298096 536.570862,520.291138 536.610962,510.708710 
	C536.627808,506.688538 538.183838,505.512604 541.957581,505.612915 
	C549.118103,505.803192 556.306091,505.340790 563.447021,505.758667 
	C568.856934,506.075287 570.849243,504.074493 572.019226,498.787994 
	C580.077332,462.378571 602.385498,440.131378 639.141968,432.932465 
	C643.471252,432.084564 644.561646,429.980255 644.538696,426.151062 
	C644.375671,398.991180 645.019897,371.825623 644.050415,344.671997 
	C643.670166,334.021759 638.499512,329.544006 627.897339,329.617065 
	C600.736572,329.804291 573.573914,329.713654 546.412964,329.890533 
	C541.849304,329.920288 540.488220,328.237579 540.519775,323.710510 
	C540.704407,297.215515 540.601379,270.718536 540.602661,244.222244 
	C540.603088,236.268417 540.613525,236.141876 548.604492,236.129196 
	C583.932434,236.073181 619.260681,236.119781 654.588623,236.059296 
	C658.768799,236.052139 662.271545,237.209717 665.630310,239.810867 
	C683.280518,253.479767 701.074402,266.962921 718.775818,280.565948 
	C721.530579,282.682892 724.402405,283.824799 727.961426,283.735657 
	C735.122559,283.556366 742.291748,283.725861 749.456970,283.666962 
	C751.381287,283.651154 753.864746,284.295288 754.833984,282.069122 
	C755.817749,279.809784 753.600403,278.484283 752.268799,277.106934 
	C741.475586,265.943298 729.785767,255.785828 717.423157,246.404526 
	C661.312073,203.824661 598.313538,179.950073 527.757080,176.596436 
	C523.548828,176.396423 521.108826,177.573517 521.267090,182.427063 
	C521.506042,189.751663 521.333984,197.089722 521.333923,204.422058 
	C521.331848,416.726959 521.328796,629.031860 521.329895,841.336731 
	C521.329956,849.120911 522.412048,850.121826 529.932983,849.485229 
	C542.204102,848.446472 554.502441,847.519836 566.636414,845.398193 
	C638.732483,832.791992 700.636353,800.466736 752.543701,748.928589 
	C753.650696,747.829468 755.320923,746.987305 755.121460,744.334595 
	C746.518860,744.334595 737.912109,744.475891 729.313843,744.268677 
	C725.599304,744.179199 722.577820,745.164307 719.658508,747.429993 
	C707.680969,756.725464 695.598633,765.885803 682.973328,775.508667 
M658.438721,619.502380 
	C658.434021,639.999878 658.498535,660.497620 658.404236,680.994690 
	C658.317810,699.774475 647.693970,710.353699 628.895325,710.423157 
	C607.229431,710.503296 585.563110,710.433777 563.897095,710.485779 
	C555.794067,710.505188 555.302002,711.034912 555.296509,718.866089 
	C555.284912,735.365723 555.434143,751.867004 555.221375,768.363831 
	C555.160217,773.101013 556.645325,774.858459 561.510559,774.834290 
	C593.008972,774.677734 624.508484,774.728516 656.007568,774.773621 
	C658.982910,774.777893 661.453552,773.975891 663.835693,772.147766 
	C680.756409,759.162354 697.805908,746.343872 714.663696,733.277832 
	C718.030701,730.668091 721.395630,729.554077 725.625183,729.584595 
	C747.290222,729.740967 768.956970,729.654053 790.623108,729.686523 
	C793.832581,729.691284 796.701782,729.645081 796.684692,725.167725 
	C796.612793,706.335205 796.636353,687.502380 796.656189,668.669617 
	C796.659241,665.764771 795.316772,664.360657 792.420593,664.361389 
	C789.087585,664.362244 785.748901,664.439514 782.422607,664.278442 
	C771.263794,663.738403 762.656677,654.897888 762.652710,643.803101 
	C762.622253,557.305176 762.650635,470.807220 762.612671,384.309296 
	C762.609436,376.961456 765.898865,371.610992 771.769653,367.556519 
	C777.163574,363.831482 783.277954,363.620209 789.513184,363.681091 
	C796.406494,363.748383 796.636536,363.458344 796.643005,356.728485 
	C796.658813,340.228882 796.656555,323.729279 796.639404,307.229675 
	C796.631470,299.605591 795.949585,298.911560 788.461243,298.860229 
	C766.964417,298.712891 745.467285,298.480957 723.970825,298.533478 
	C719.682678,298.543976 716.351868,297.263245 713.029663,294.702118 
	C695.478088,281.171600 677.796814,267.809448 660.194031,254.345154 
	C657.743347,252.470612 655.268921,251.252640 652.018921,251.262787 
	C622.019958,251.356400 592.020569,251.308182 562.021301,251.344086 
	C556.276611,251.350967 555.383362,252.261658 555.366394,258.095123 
	C555.319458,274.261261 555.331848,290.427673 555.350098,306.593903 
	C555.358826,314.329346 555.721008,314.732300 563.619080,314.758179 
	C584.451660,314.826447 605.284485,314.837677 626.117249,314.837677 
	C630.299683,314.837677 634.476685,315.014954 638.517273,316.079254 
	C650.581909,319.257111 658.292603,329.282776 658.393860,342.276367 
	C658.612000,370.272186 658.692688,398.269318 658.725098,426.266022 
	C658.730042,430.513916 660.278809,432.242432 664.685364,433.005798 
	C704.698303,439.937073 732.093323,472.230988 732.527588,512.592834 
	C732.961975,552.964539 702.805359,588.024292 662.957458,593.302856 
	C659.821594,593.718201 658.574463,594.883789 658.599792,598.007751 
	C658.655151,604.838989 658.505981,611.671936 658.438721,619.502380 
M899.435913,428.934021 
	C888.940430,382.509094 870.564148,339.500885 844.696899,299.391327 
	C841.732849,301.507477 842.383911,303.502686 842.380798,305.228790 
	C842.341858,326.724976 842.380493,348.221283 842.344177,369.717499 
	C842.339844,372.265472 842.719055,374.653656 843.754883,376.993317 
	C848.004456,386.592133 851.545959,396.450165 854.687134,406.469177 
	C869.583862,453.983307 874.359070,502.534363 869.051025,551.984375 
	C865.659058,583.584229 857.776306,614.158875 846.025085,643.721924 
	C844.259949,648.162598 842.235168,652.481201 842.276672,657.572998 
	C842.454468,679.401123 842.331787,701.231506 842.372742,723.061035 
	C842.375610,724.614563 841.779968,726.393982 843.817627,728.146667 
	C845.792175,725.194641 847.783447,722.395752 849.592407,719.483643 
	C860.335022,702.189819 869.584229,684.113892 877.529175,665.380493 
	C890.914062,633.820618 900.299316,601.139954 904.764343,567.099487 
	C905.672546,560.175720 906.621643,553.255981 907.677246,546.353638 
	C908.018738,544.120239 909.017639,541.464844 911.822632,543.089539 
	C916.032104,545.527710 920.837463,545.404602 925.163025,547.090515 
	C928.938660,548.562134 931.565552,547.275146 933.545532,543.921814 
	C936.233337,539.369629 937.717407,534.429626 937.970825,529.215942 
	C938.716492,513.876648 940.775269,498.740662 943.862305,483.692047 
	C945.534607,475.539917 945.845276,467.141693 945.876526,458.817474 
	C945.924866,445.924500 941.476562,444.226898 931.128540,446.583862 
	C924.066284,448.192444 916.811218,453.749298 913.247192,461.284363 
	C911.519531,464.936981 911.501099,469.382141 910.577087,473.438446 
	C910.203918,475.076660 910.722717,477.180054 907.877563,478.530243 
	C905.309082,462.024567 903.133850,445.764893 899.435913,428.934021 
M479.528320,415.140961 
	C477.335571,415.917358 475.112762,416.618561 472.954529,417.481262 
	C431.587708,434.015900 407.638733,471.652679 407.582062,512.354004 
	C407.532959,547.607605 422.616333,575.997009 451.253143,596.776367 
	C464.682159,606.520691 479.771606,612.576599 496.308014,614.578247 
	C503.696625,615.472595 504.647766,614.452148 504.655548,607.413330 
	C504.676117,588.754395 504.522247,570.093445 504.771912,551.437805 
	C504.836212,546.630432 503.432068,544.485168 498.588226,543.149963 
	C481.516388,538.444092 472.017548,519.208069 478.047943,502.493439 
	C481.754547,492.219604 488.794739,485.477753 499.332458,482.456604 
	C502.102783,481.662323 504.717163,481.016113 504.695679,477.103241 
	C504.584106,456.779022 504.625092,436.453888 504.646851,416.129089 
	C504.650757,412.494293 502.824646,411.065063 499.338196,411.164185 
	C492.773895,411.350800 486.531891,413.105011 479.528320,415.140961 
M185.274673,435.593384 
	C180.134155,455.829163 177.537354,476.467865 176.517441,497.248627 
	C174.933548,529.520508 177.818848,561.509888 185.805939,592.825867 
	C207.886459,679.399597 256.973999,746.900085 331.535645,795.682556 
	C373.092743,822.871582 418.818909,839.716614 468.109100,846.504944 
	C478.168274,847.890381 488.279449,848.991028 498.454376,849.089722 
	C503.628967,849.139893 504.797974,847.602478 504.689545,842.437195 
	C504.592865,837.831116 501.469940,837.551208 498.181091,837.448975 
	C473.069824,836.668213 448.466736,832.470215 424.488922,825.237915 
	C336.539124,798.709961 269.450867,745.705933 225.862442,664.696106 
	C191.196991,600.269653 180.639893,531.300232 192.543869,458.991882 
	C200.298386,411.888611 218.059265,368.843506 245.001801,329.554260 
	C267.863342,296.216125 295.978668,268.091248 329.389191,245.266953 
	C365.900787,220.324097 405.717926,203.249344 449.102814,194.552811 
	C464.961060,191.374023 480.911194,189.049759 497.111267,188.528809 
	C503.800934,188.313690 505.205078,186.643005 504.617889,180.882446 
	C504.028870,175.104294 499.751434,176.645157 496.257416,176.755264 
	C494.596313,176.807617 492.945465,177.137146 491.283783,177.226700 
	C453.804779,179.246979 417.667114,187.639038 383.509247,202.866119 
	C280.805450,248.649963 214.300293,325.749115 185.274673,435.593384 
M420.354156,412.861542 
	C384.284302,446.428741 369.626953,488.032654 377.959564,536.182495 
	C385.740631,581.144958 411.453735,614.185425 452.642578,634.556824 
	C466.953430,641.634766 482.118225,645.975464 498.133728,646.910706 
	C503.797058,647.241394 504.596832,646.384949 504.663177,640.874573 
	C504.701263,637.709473 504.429169,634.520996 504.724670,631.383301 
	C505.198364,626.353821 502.875305,624.623840 498.125580,624.288452 
	C488.446625,623.605164 479.024048,621.382568 470.016266,617.806519 
	C413.455322,595.351990 385.482391,536.796326 403.172516,478.087128 
	C415.133270,438.392090 453.894318,406.327850 495.501587,401.709808 
	C504.323669,400.730621 504.585876,400.368713 504.685120,391.730530 
	C504.859009,376.596344 505.081512,377.657104 489.923187,379.832123 
	C463.710083,383.593384 440.744263,394.852753 420.354156,412.861542 
M656.313782,456.218323 
	C656.268799,459.522675 655.383545,462.542786 651.480652,462.433807 
	C647.277344,462.316498 646.736389,458.970978 646.738831,455.572784 
	C646.739563,454.573578 646.643738,453.566772 646.734192,452.576447 
	C647.116516,448.390320 645.221680,446.726013 641.120178,447.310089 
	C629.979736,448.896576 620.131653,453.479370 611.186340,460.164520 
	C609.341980,461.542847 609.185974,463.132385 610.785034,464.807983 
	C612.393982,466.493835 614.087280,468.100342 615.670166,469.809662 
	C617.689575,471.990265 618.520264,474.579468 616.430237,476.979919 
	C614.223755,479.514191 611.614136,478.596771 609.327271,476.768402 
	C608.030518,475.731720 606.721558,474.649078 605.669922,473.378693 
	C602.625183,469.700500 600.358276,470.664246 597.881409,474.133789 
	C591.563782,482.983032 587.705017,492.751556 585.955200,503.455688 
	C585.422058,506.717133 586.725647,507.703827 589.654297,507.707367 
	C591.981323,507.710175 594.347595,507.638306 596.624817,508.023468 
	C599.263977,508.469818 601.308167,509.902039 601.275940,512.987366 
	C601.243652,516.085266 599.257507,517.399597 596.501343,517.738953 
	C594.524292,517.982422 592.517517,518.079529 590.524353,518.076172 
	C586.942810,518.070129 585.438293,519.339783 586.088684,523.268677 
	C587.895630,534.184875 592.319031,543.902771 598.667114,552.858582 
	C600.761108,555.812805 602.717224,555.749268 605.062683,553.135559 
	C606.498047,551.536011 608.132751,550.067322 609.865295,548.794983 
	C611.917358,547.287903 614.326538,546.913330 616.249207,548.870117 
	C618.307800,550.965332 618.031616,553.440247 616.188416,555.613464 
	C614.575439,557.515198 612.792664,559.273193 611.081726,561.091675 
	C609.535095,562.735413 609.450134,564.289001 611.353210,565.729248 
	C620.402405,572.577698 630.375183,577.278748 641.721863,578.778015 
	C645.056274,579.218628 646.806213,577.895081 646.712769,574.380188 
	C646.659729,572.385010 646.643188,570.372864 646.839600,568.391052 
	C647.116516,565.595764 648.553101,563.585266 651.570740,563.591553 
	C654.591187,563.597839 656.019714,565.590027 656.233337,568.416138 
	C656.396118,570.570557 656.403687,572.746399 656.325073,574.907043 
	C656.209778,578.075134 657.330444,579.496643 660.770569,579.043884 
	C672.115784,577.550903 682.150696,573.006042 691.354675,566.390503 
	C694.047119,564.455261 693.942017,562.453979 691.694275,560.210083 
	C689.935364,558.454102 688.185425,556.661499 686.660156,554.706726 
	C685.133911,552.750488 685.258179,550.572510 687.068359,548.837891 
	C688.844238,547.136047 691.034058,547.093872 693.034729,548.415588 
	C694.407593,549.322571 695.567261,550.566040 696.770691,551.713196 
	C701.697876,556.410034 702.682373,556.294495 706.558350,550.533875 
	C711.062622,543.839233 714.277405,536.562622 716.284973,528.761719 
	C718.780396,519.065125 718.365356,518.517944 708.323364,517.579346 
	C707.660156,517.517334 706.996765,517.452271 706.332031,517.413086 
	C703.755005,517.260986 702.243591,515.796204 702.143250,513.336060 
	C702.048035,510.999054 703.158691,508.982239 705.629333,508.501312 
	C708.058228,508.028473 710.574524,507.847229 713.054443,507.830444 
	C716.882874,507.804474 718.046753,505.914856 717.438965,502.385681 
	C715.687195,492.212433 711.889709,482.872101 705.886353,474.487732 
	C702.640686,469.954559 701.170776,469.947815 697.251831,473.744537 
	C695.822327,475.129547 694.462341,476.682404 692.790283,477.696167 
	C690.793701,478.906677 688.589966,478.733032 686.876343,476.878967 
	C685.270996,475.142151 685.420410,473.157013 686.701599,471.388916 
	C687.862488,469.786652 689.309143,468.385376 690.677612,466.940704 
	C694.500122,462.905090 694.493530,461.957825 690.099365,458.789429 
	C682.713623,453.463959 674.567505,449.819397 665.640808,447.906250 
	C656.697083,445.989349 656.362061,446.220245 656.313782,456.218323 
M790.199036,394.223480 
	C788.450623,390.448975 786.734436,386.659027 784.938904,382.907104 
	C784.148376,381.255280 783.289734,379.350922 781.020935,379.703522 
	C778.549866,380.087585 777.405212,381.935608 777.218445,384.318359 
	C777.049561,386.473480 776.959656,388.640472 776.958740,390.802277 
	C776.926514,469.238129 776.906677,547.674011 776.893799,626.109863 
	C776.892883,631.604431 776.877625,637.101318 777.031738,642.592529 
	C777.097290,644.928345 777.384155,647.629578 780.253906,648.131592 
	C782.794373,648.575989 783.409973,645.989990 784.233398,644.320679 
	C801.742493,608.829407 812.159119,571.277161 814.432556,531.836914 
	C817.163269,484.463226 809.460876,438.638794 790.199036,394.223480 
M810.422546,631.747864 
	C808.384583,637.441406 805.139160,642.716064 803.851990,648.670959 
	C804.887390,649.157959 805.324829,649.535828 805.770752,649.546204 
	C809.267578,649.627686 812.771545,649.527344 816.262207,649.704346 
	C819.396851,649.863342 821.224854,648.419250 822.410889,645.663269 
	C838.562988,608.131653 847.806580,568.994812 849.643433,528.155945 
	C850.929443,499.565247 848.469482,471.267731 842.574158,443.270081 
	C838.342651,423.174042 832.227966,403.671936 824.243652,384.737366 
	C822.351807,380.250793 819.521240,378.117706 814.661438,378.679565 
	C813.010742,378.870392 811.334167,378.844971 809.668762,378.897461 
	C806.006714,379.013000 804.988953,380.590576 806.430176,384.071930 
	C809.168762,390.686737 811.827209,397.340424 814.301147,404.058197 
	C831.102173,449.678894 836.650085,496.761047 831.942566,545.038574 
	C829.050903,574.693604 821.940674,603.394409 810.422546,631.747864 
M331.518433,760.952698 
	C337.603851,765.029663 343.621399,769.213989 349.809357,773.128906 
	C352.163666,774.618408 355.380676,777.700012 357.610016,774.165222 
	C360.087799,770.236694 355.545319,768.930237 353.125244,767.394348 
	C302.154877,735.045471 263.455963,691.940613 238.529327,636.771423 
	C235.379868,629.800781 232.699631,622.619141 229.738998,615.561646 
	C228.937698,613.651550 227.745911,611.755432 225.285141,612.568665 
	C222.712845,613.418823 223.294647,615.664185 223.722519,617.638550 
	C223.897720,618.447021 224.222778,619.225647 224.508347,620.007324 
	C230.464752,636.313049 237.751495,652.026184 246.542786,666.970398 
	C268.268555,703.901611 296.308411,735.211243 331.518433,760.952698 
M225.202621,421.642822 
	C227.118042,419.623444 227.558746,416.910278 228.516449,414.455963 
	C231.055756,407.948334 233.211395,401.278137 236.004974,394.884613 
	C259.878693,340.245667 296.252930,295.960419 345.804993,262.602234 
	C348.020569,261.110748 352.354797,259.681244 349.719727,256.001465 
	C347.308411,252.634171 344.616302,256.139038 342.504761,257.532135 
	C292.954407,290.223389 256.554657,334.112823 231.881897,387.912994 
	C227.579758,397.293976 223.790558,406.902954 220.808746,416.792053 
	C219.904526,419.790924 219.335388,423.220673 225.202621,421.642822 
M347.174500,724.370117 
	C312.416595,697.221802 285.418274,663.924927 267.390747,623.546204 
	C264.949524,618.078247 262.905701,612.432373 260.445282,606.973755 
	C259.399200,604.652954 259.193207,600.352234 255.196198,601.872925 
	C251.627670,603.230652 253.860016,606.485840 254.659058,608.820923 
	C256.058594,612.911133 257.666016,616.938110 259.354095,620.920471 
	C281.921600,674.159790 318.417633,715.395020 367.262665,745.956421 
	C369.350494,747.262695 371.944855,749.103394 373.765411,746.054626 
	C375.438843,743.252319 372.607880,741.989746 370.754913,740.700989 
	C363.101166,735.377808 355.413696,730.103088 347.174500,724.370117 
M295.524445,354.062897 
	C313.553436,329.322479 335.407623,308.579865 360.616089,291.246887 
	C363.283997,289.412476 369.851257,288.084045 366.569153,283.552124 
	C363.673676,279.554016 359.813416,284.671844 356.951141,286.611115 
	C330.231445,304.714661 307.397736,326.881042 288.486359,353.044647 
	C272.370148,375.341125 260.202759,399.668762 251.523682,425.748932 
	C250.893921,427.641327 249.406982,430.203613 252.288116,431.429016 
	C255.221741,432.676727 256.389069,430.266357 257.361298,428.038727 
	C257.627655,427.428436 257.912689,426.821442 258.116547,426.189514 
	C266.472992,400.288544 279.262329,376.679718 295.524445,354.062897 
M811.060059,716.482422 
	C811.279968,730.905518 809.487610,729.456909 822.473694,729.768433 
	C827.469421,729.888245 828.726562,727.830688 828.669434,723.228088 
	C828.471558,707.269470 828.571411,691.306946 828.580505,675.345947 
	C828.586853,664.210815 828.600220,664.410217 817.460449,664.241089 
	C812.652771,664.168091 811.009583,665.859375 811.063599,670.600037 
	C811.234253,685.561035 811.086548,700.525696 811.060059,716.482422 
M302.670593,416.297943 
	C320.577209,377.549591 347.535522,346.514404 382.615692,322.375885 
	C384.891998,320.809540 389.277740,319.607513 386.993805,315.931976 
	C384.607513,312.091736 381.683899,315.692291 379.457306,317.189606 
	C343.836334,341.143250 316.590546,372.401581 297.938202,411.094910 
	C293.668762,419.951538 290.191650,429.127380 287.270020,438.511566 
	C286.731842,440.240234 285.884674,442.342163 288.201019,443.298187 
	C290.600494,444.288574 291.865051,442.439880 292.776184,440.559174 
	C293.499573,439.066040 294.056183,437.491974 294.683350,435.952423 
	C297.256378,429.636444 299.827972,423.319916 302.670593,416.297943 
M362.374237,696.109375 
	C364.484406,697.733276 366.611145,699.336060 368.701660,700.984863 
	C374.987000,705.942322 381.738159,710.214478 388.511200,714.451538 
	C390.478943,715.682556 392.725342,716.475342 394.121368,713.916504 
	C395.370728,711.626526 393.451630,710.278076 391.792816,709.088135 
	C391.253693,708.701355 390.658234,708.393799 390.094086,708.041138 
	C361.003052,689.859314 337.019867,666.461914 318.172333,637.780884 
	C308.892639,623.659607 301.650696,608.545959 295.699585,592.770996 
	C294.931641,590.735413 293.893433,588.281860 291.153198,589.318604 
	C288.493408,590.324951 289.152954,592.852417 289.897552,594.925720 
	C291.415070,599.151123 292.900787,603.401794 294.703705,607.508545 
	C309.974365,642.292236 332.522339,671.553406 362.374237,696.109375 
M827.884949,320.500183 
	C827.871826,315.678040 827.874451,310.855774 827.841797,306.033752 
	C827.799194,299.743256 826.943359,298.901093 820.632935,298.833771 
	C812.657043,298.748688 811.296204,299.743561 811.276733,306.156647 
	C811.228394,322.119476 811.257080,338.082581 811.274719,354.045563 
	C811.285583,363.883636 811.301880,363.883636 821.285583,363.660553 
	C827.076111,363.531189 827.855042,362.840210 827.886780,356.917877 
	C827.950073,345.112305 827.892273,333.306030 827.884949,320.500183 
M339.594391,421.218689 
	C341.124939,418.449127 342.554718,415.618073 344.201721,412.919586 
	C359.359558,388.084229 378.982056,367.519653 403.177460,351.324585 
	C405.201263,349.969940 408.051361,348.368256 405.943024,345.462860 
	C404.079926,342.895386 401.657959,344.849182 399.776855,346.101562 
	C361.995178,371.256042 335.593445,405.180511 321.140259,448.295746 
	C320.426727,450.424438 319.550171,452.852966 322.230652,453.913147 
	C325.223480,455.096924 326.233826,452.647064 327.027252,450.296692 
	C330.335571,440.496216 334.537537,431.076508 339.594391,421.218689 
M381.219574,657.302429 
	C358.043640,636.458374 340.587708,611.678406 329.645996,582.406738 
	C329.183990,581.170837 328.622986,579.932739 327.881134,578.851379 
	C327.069092,577.667725 325.833557,577.135681 324.388031,577.799744 
	C323.242493,578.326050 322.395142,579.284119 322.568237,580.524170 
	C322.794891,582.148193 323.270508,583.767517 323.854706,585.307007 
	C329.070892,599.053284 335.795563,612.036011 343.980042,624.240356 
	C359.967316,648.079773 380.040619,667.715637 404.633545,682.610901 
	C406.723175,683.876526 409.564209,686.418640 411.534760,683.127136 
	C413.252502,680.257996 410.161316,678.797791 408.088501,677.504028 
	C398.746124,671.673340 390.077057,664.951355 381.219574,657.302429 
z"/>
<path fill="#000000" opacity="1.000000" stroke="none" 
	d="
M673.382568,548.567505 
	C647.384583,562.262207 619.190979,550.704346 611.639709,523.582886 
	C605.369446,501.062805 619.379089,477.844208 642.613342,472.249084 
	C664.808594,466.904205 687.406555,481.292603 692.161560,503.796997 
	C695.900085,521.490479 688.898438,538.391479 673.382568,548.567505 
M627.183472,524.265930 
	C634.152954,537.950500 648.141663,543.484192 662.003723,538.040222 
	C674.572083,533.104370 681.628174,518.712280 677.850159,505.718842 
	C673.389465,490.377625 657.760193,482.128448 642.959534,487.045807 
	C629.089539,491.653900 619.932312,508.662842 627.183472,524.265930 
z"/>
<path fill="#000000" opacity="1.000000" stroke="none" 
	d="
M657.470764,519.811890 
	C657.616333,521.061218 657.808472,521.879700 657.833191,522.703186 
	C657.905640,525.114746 659.062256,528.181396 656.489807,529.556763 
	C653.541809,531.132874 649.993347,530.588562 646.750061,529.930969 
	C644.828796,529.541504 645.124512,527.692871 645.295471,526.209595 
	C645.978516,520.284729 646.407715,514.642578 642.796814,509.078339 
	C640.300415,505.231476 642.357788,500.362213 646.163818,497.795044 
	C649.989929,495.214294 654.695862,495.473572 658.126038,498.454163 
	C661.546814,501.426544 662.577576,506.668213 660.112976,510.654388 
	C658.416199,513.398682 656.782227,515.992737 657.470764,519.811890 
z"/>
</svg>